<svg xmlns="http://www.w3.org/2000/svg" data-name="Layer 1" viewBox="0 0 100 125" x="0px" y="0px"><title>revisi travel</title><path d="M94.11,37.65a42.45,42.45,0,0,0-81.56,0A1.5,1.5,0,0,0,14,39.57H51.43V72.44H24.89a1.5,1.5,0,0,0-1.06.44L6.27,90.44a1.5,1.5,0,1,0,2.12,2.12L18.81,82.15H75.46L85.88,92.56A1.5,1.5,0,0,0,88,90.44L71.65,74.1,91,54.71a1.5,1.5,0,0,0-2.12-2.12L69.07,72.44H54.43V39.57H92.67a1.5,1.5,0,0,0,1.44-1.92ZM21.81,79.15l3.7-3.7H68.76l3.7,3.7ZM16,36.57a39.45,39.45,0,0,1,74.58,0Z"/><text x="0" y="115" fill="#000000" font-size="5px" font-weight="bold" font-family="'Helvetica Neue', Helvetica, Arial-Unicode, Arial, Sans-serif">Created by Edwin Prayogi M</text><text x="0" y="120" fill="#000000" font-size="5px" font-weight="bold" font-family="'Helvetica Neue', Helvetica, Arial-Unicode, Arial, Sans-serif">from the Noun Project</text></svg>