<svg xmlns="http://www.w3.org/2000/svg" xmlns:xlink="http://www.w3.org/1999/xlink" version="1.1" x="0px" y="0px" viewBox="0 0 100 125" enable-background="new 0 0 100 100" xml:space="preserve"><g><path fill="#000000" d="M93.9990234,35.4941406h-8.1542969c-1.6787109,0-3.0439453,1.3657227-3.0439453,3.0439453v3.4458008   c0,2.0249023-1.6474609,3.6723633-3.6728516,3.6723633H68.8984375c-2.6738281,0-4.8486328,2.175293-4.8486328,4.8486328v9.7856445   c0,0.4140625,0.3359375,0.75,0.75,0.75h0.5302734v1.8569336c0,0.8867188,0.7216797,1.6083984,1.609375,1.6083984   c0.8867188,0,1.6083984-0.7216797,1.6083984-1.6083984v-1.8569336h22.4111328v1.8569336   c0,0.8867188,0.7216797,1.6083984,1.6083984,1.6083984c0.8876953,0,1.609375-0.7216797,1.609375-1.6083984v-1.8928223   c0.3258057-0.081665,0.5722656-0.3630981,0.5722656-0.7141113V36.2441406   C94.7490234,35.8300781,94.4130859,35.4941406,93.9990234,35.4941406z M67.0478516,62.8974609   c0.0009766,0.1206055-0.2167969,0.1186523-0.2177734,0v-1.8569336h0.2177734V62.8974609z M92.6767578,62.8974609   c0,0.1181641-0.2177734,0.1201172-0.2177734,0v-1.8569336h0.2177734V62.8974609z M93.2490234,59.5405273h-1.5400391H67.7978516   h-1.7177734h-0.5302734v-9.0356445c0-1.8466797,1.5019531-3.3486328,3.3486328-3.3486328h10.2294922   c2.8525391,0,5.1728516-2.3203125,5.1728516-5.1723633v-3.4458008c0-0.8515625,0.6923828-1.5439453,1.5439453-1.5439453h7.4042969   V59.5405273z"/><path fill="#000000" d="M31.1015625,45.65625H20.8720703c-2.0253906,0-3.6728516-1.6474609-3.6728516-3.6723633v-3.4458008   c0-1.6782227-1.3652344-3.0439453-3.0439453-3.0439453H6.0009766c-0.4140625,0-0.75,0.3359375-0.75,0.75v24.0463867   c0,0.3510132,0.24646,0.6324463,0.5722656,0.7141113v1.8928223c0,0.8867188,0.7216797,1.6083984,1.609375,1.6083984   c0.8867188,0,1.6083984-0.7216797,1.6083984-1.6083984v-1.8569336h22.4111328v1.8569336   c0,0.8867188,0.7216797,1.6083984,1.6083984,1.6083984c0.8876953,0,1.609375-0.7216797,1.609375-1.6083984v-1.8569336h0.5302734   c0.4140625,0,0.75-0.3359375,0.75-0.75v-9.7856445C35.9501953,47.831543,33.7753906,45.65625,31.1015625,45.65625z    M7.5410156,62.8974609c0,0.1206055-0.2167969,0.1186523-0.2177734,0v-1.8569336h0.2177734V62.8974609z M33.1699219,62.8974609   c0,0.1181641-0.2177734,0.1201172-0.2177734,0v-1.8569336h0.2177734V62.8974609z M34.4501953,59.5405273h-0.5302734h-1.7177734   H8.2910156H6.7509766V36.9941406h7.4042969c0.8515625,0,1.5439453,0.6923828,1.5439453,1.5439453v3.4458008   c0,2.8520508,2.3203125,5.1723633,5.1728516,5.1723633h10.2294922c1.8466797,0,3.3486328,1.5019531,3.3486328,3.3486328V59.5405273   z"/><path fill="#000000" d="M61.984375,45.8374023h-9.3590698l0.2487183-2.4633789   c0.0214844-0.2109375-0.0478516-0.4208984-0.1894531-0.578125c-0.1425781-0.1572266-0.3447266-0.2470703-0.5566406-0.2470703   h-1.6660156v-0.6124878c1.1229858-0.0505371,2.2533569-0.2092285,3.3710938-0.4856567   c0.1933594-0.0478516,0.3603516-0.171875,0.4628906-0.34375s0.1328125-0.3774414,0.0830078-0.5712891l-1.1728516-4.5595703   c-0.0859375-0.3310547-0.3847656-0.5629883-0.7265625-0.5629883h-5.5351562c-0.3427734,0-0.6425781,0.2329102-0.7265625,0.5654297   l-1.1582031,4.5595703c-0.0498047,0.1933594-0.0195312,0.3984375,0.0830078,0.5698242s0.2695312,0.2949219,0.4628906,0.3427734   c1.1126709,0.2752075,2.2379761,0.4337769,3.3564453,0.4851685v0.6129761h-1.6660156   c-0.2119141,0-0.4140625,0.0898438-0.5566406,0.2470703c-0.1416016,0.1572266-0.2109375,0.3671875-0.1894531,0.578125   l0.2487183,2.4633789H38.015625c-0.4140625,0-0.75,0.3359375-0.75,0.75v2.8237305c0,0.4140625,0.3359375,0.75,0.75,0.75h10.0820312   v12.7363281c0,0.8867188,0.7216797,1.6083984,1.6083984,1.6083984c0.8876953,0,1.609375-0.7216797,1.609375-1.6083984V50.1611328   H61.984375c0.4140625,0,0.75-0.3359375,0.75-0.75v-2.8237305C62.734375,46.1733398,62.3984375,45.8374023,61.984375,45.8374023z    M47.5273438,36.9130859h4.3710938l0.8349609,3.2460938c-2.0117188,0.3989258-4.0224609,0.3984375-6.0302734-0.0004883   L47.5273438,36.9130859z M48.125,44.0488281h3.1738281l-0.1806641,1.7885742h-2.8125L48.125,44.0488281z M49.8154297,62.8974609   c-0.0009766,0.1181641-0.2177734,0.1201172-0.2177734,0V50.1611328h0.2177734V62.8974609z M61.234375,48.6611328H50.6234131   c-0.0201416-0.0016479-0.0374146-0.0117188-0.0579834-0.0117188h-1.7177734c-0.0205688,0-0.0378418,0.0100708-0.0579834,0.0117188   H38.765625v-1.3237305h8.8623047h4.1679688h9.4384766V48.6611328z"/></g><text x="0" y="115" fill="#000000" font-size="5px" font-weight="bold" font-family="'Helvetica Neue', Helvetica, Arial-Unicode, Arial, Sans-serif">Created by ILKEBRS</text><text x="0" y="120" fill="#000000" font-size="5px" font-weight="bold" font-family="'Helvetica Neue', Helvetica, Arial-Unicode, Arial, Sans-serif">from the Noun Project</text></svg>