<svg xmlns="http://www.w3.org/2000/svg" viewBox="0 0 64 80" x="0px" y="0px"><path d="M60.451,33.145a3.118,3.118,0,0,0-.14-4.249A3.075,3.075,0,0,0,58,27.987a3.126,3.126,0,0,0-2.241,1.071h0L44.543,42H32.664L26.387,18.207c4.516-1.114,7.411-1.137,8.088-.874a.311.311,0,0,0,.023.028c.015.025.029.048.046.071s.031.031.046.048a.768.768,0,0,0,.055.059c.017.017.03.037.048.052a1.006,1.006,0,0,0,.146.106l.008.005a.98.98,0,0,0,.509.157.952.952,0,0,0,.247-.032.973.973,0,0,0,.709-1.2c.054-.326,1.2-1.416,3.6-2.058s3.939-.272,4.123-.069c.006.021.021.035.027.055a1,1,0,0,0,1.905-.573l0,0C44.843,9.8,41.649,6.467,36.972,4.588a24.382,24.382,0,0,0-14.457-.846l-.268-1a1,1,0,0,0-1.932.518l.269,1a24.375,24.375,0,0,0-12.1,7.96C5.4,16.156,4.3,20.6,5.377,24.754c.007.034.012.072.02.1a1.035,1.035,0,0,0,.982.768.946.946,0,0,0,.246-.033.973.973,0,0,0,.71-1.2c.054-.326,1.2-1.416,3.6-2.058s3.938-.273,4.123-.069a.985.985,0,0,0,.165.332.9.9,0,0,0,.074.077.992.992,0,0,0,.19.165.874.874,0,0,0,.109.058,1.1,1.1,0,0,0,.35.1c.026,0,.05.012.076.012a1.015,1.015,0,0,0,.26-.034,1.026,1.026,0,0,0,.331-.164,1.084,1.084,0,0,0,.085-.081,1.067,1.067,0,0,0,.156-.18.873.873,0,0,0,.062-.117,1.042,1.042,0,0,0,.073-.212,1.012,1.012,0,0,0,.022-.134.7.7,0,0,0,.012-.078c.454-.564,2.987-1.985,7.436-3.276L30.6,42H15a1,1,0,0,0-.5.136L4.3,48.082A3.232,3.232,0,0,0,7.56,53.665l8.22-4.8L9.132,60.5A1,1,0,0,0,10,62h4a1,1,0,0,0,.868-.5L22.58,48h9.6l2.995,11.352a1,1,0,0,0,.966.746,1.023,1.023,0,0,0,.256-.034,1,1,0,0,0,.711-1.222L34.247,48H41.42l7.712,13.5A1,1,0,0,0,50,62h4a1,1,0,0,0,.868-1.5L47.6,47.776a1.009,1.009,0,0,0,.158-.117ZM36.226,6.444a13.158,13.158,0,0,1,6.892,5.8,11.26,11.26,0,0,0-3.724.4,10.814,10.814,0,0,0-3.6,1.648c-.068.051-.118.1-.18.151a17.991,17.991,0,0,0-7.385-9.4A20.755,20.755,0,0,1,36.226,6.444ZM10.416,20.405a11.043,11.043,0,0,0-3.424,1.53,13.15,13.15,0,0,1,3.07-8.48,20.735,20.735,0,0,1,6.181-5.186,13.505,13.505,0,0,0-1.083,2.418,19.467,19.467,0,0,0-.571,9.371A10.706,10.706,0,0,0,10.416,20.405Zm6.158-.585a17.5,17.5,0,0,1,.481-8.493c.981-2.9,2.757-4.828,5-5.43,4.391-1.175,9.376,2.937,11.724,9.353-1.654-.165-4.372.065-8.877,1.273a38.86,38.86,0,0,0-6.862,2.467A13.849,13.849,0,0,0,16.574,19.82ZM13.42,60h-1.7L18.58,48h1.7ZM22,46H17a1,1,0,0,0-.5.136l-9.944,5.8A1.231,1.231,0,1,1,5.311,49.81L15.271,44H31.124l.527,2Zm11.192-2H45a1,1,0,0,0,.756-.345L57.271,30.368a1.1,1.1,0,0,1,.8-.382,1.111,1.111,0,0,1,.875,1.842L46.546,46H33.72ZM50.58,60,43.724,48h1.7l6.856,12Z"/><text x="0" y="79" fill="#000000" font-size="5px" font-weight="bold" font-family="'Helvetica Neue', Helvetica, Arial-Unicode, Arial, Sans-serif">Created by Manop Leklai</text><text x="0" y="84" fill="#000000" font-size="5px" font-weight="bold" font-family="'Helvetica Neue', Helvetica, Arial-Unicode, Arial, Sans-serif">from the Noun Project</text></svg>