<svg xmlns="http://www.w3.org/2000/svg" xmlns:xlink="http://www.w3.org/1999/xlink" version="1.1" x="0px" y="0px" viewBox="0 0 100 125" enable-background="new 0 0 100 100" xml:space="preserve"><g><g><path style='fill:black; stroke: white; stroke-width: 6px !important' d="M85.515,81.874c-5.519,5.52-13.84,5.518-19.357,0.002l-2.828-2.826l-2.827,2.826c-5.438,5.441-15.566,5.443-21.007,0.002    l-2.828-2.83l-2.828,2.828c-5.52,5.518-13.84,5.518-19.354,0l-2.828-2.828L6,84.706l2.829,2.828    c7.709,7.711,19.342,8.506,27.863,2.383c7.836,5.445,18.773,5.443,26.61,0c8.521,6.121,20.155,5.328,27.87-2.387L94,84.7    l-5.656-5.656L85.515,81.874z M36.692,72.067c7.836,5.445,18.773,5.443,26.61-0.002c8.521,6.123,20.155,5.33,27.87-2.387    L94,66.849l-5.656-5.656l-2.829,2.828c-5.519,5.521-13.84,5.521-19.357,0.004l-2.828-2.828l-2.827,2.828    c-1.775,1.777-4.054,2.961-6.502,3.58v-6.447c3.527-1.545,6-5.066,6-9.158V28c0-4.092-2.473-7.613-6-9.16V14h-8v4.84    c-3.527,1.547-6,5.068-6,9.16v24c0,4.092,2.473,7.613,6,9.158v6.449c-2.449-0.619-4.729-1.805-6.505-3.58l-2.828-2.83    l-2.828,2.828c-1.17,1.17-2.471,2.076-3.839,2.75V53.157c3.527-1.545,6-5.066,6-9.158V20c0-4.092-2.473-7.613-6-9.16V6h-8v4.84    c-3.527,1.547-6,5.068-6,9.16v24c0,4.092,2.473,7.613,6,9.158V67.97c-2.713-0.457-5.334-1.764-7.516-3.945l-2.828-2.828L6,66.853    l2.829,2.832C16.538,77.396,28.171,78.19,36.692,72.067z M48,28c0-1.084,0.916-2,2-2s2,0.916,2,2v24c0,1.084-0.916,2-2,2    s-2-0.916-2-2V28z M24,20c0-1.084,0.916-2,2-2s2,0.916,2,2v24c0,1.084-0.916,2-2,2s-2-0.916-2-2V20z"/></g></g><text x="0" y="115" fill="#000000" font-size="5px" font-weight="bold" font-family="'Helvetica Neue', Helvetica, Arial-Unicode, Arial, Sans-serif">Created by Jake Dunham</text><text x="0" y="120" fill="#000000" font-size="5px" font-weight="bold" font-family="'Helvetica Neue', Helvetica, Arial-Unicode, Arial, Sans-serif">from the Noun Project</text></svg>