<svg xmlns:dc="http://purl.org/dc/elements/1.1/" xmlns:cc="http://creativecommons.org/ns#" xmlns:rdf="http://www.w3.org/1999/02/22-rdf-syntax-ns#" xmlns:svg="http://www.w3.org/2000/svg" xmlns="http://www.w3.org/2000/svg" xmlns:sodipodi="http://sodipodi.sourceforge.net/DTD/sodipodi-0.dtd" xmlns:inkscape="http://www.inkscape.org/namespaces/inkscape" viewBox="0 0 100 125" version="1.1" x="0px" y="0px"><g transform="translate(0,-952.36216)"><path style='stroke-width:1.7px !important; stroke:white !important' d="m 20.602854,958.36214 a 1.5074714,1.5173931 0 0 0 -1.50586,1.51758 l 0,15.53516 a 1.5074714,1.5173931 0 0 0 1.50586,1.51758 l 58.794922,0 a 1.5074714,1.5173931 0 0 0 1.505859,-1.51758 l 0,-15.53516 a 1.5074714,1.5173931 0 0 0 -1.505859,-1.51758 l -58.794922,0 z m 1.507812,3.03516 55.779297,0 0,12.5 -55.779297,0 0,-12.5 z m -1.507812,17.37891 a 1.5074714,1.5173931 0 0 0 -1.50586,1.51757 l 0,-0.24218 -3.023437,9.34375 a 1.5074714,1.5173931 0 0 0 1.431641,1.98633 l 64.984374,0.10156 a 1.5074714,1.5173931 0 0 0 1.437498,-1.98438 l -3.095701,-9.67187 a 1.5074714,1.5173931 0 0 0 -1.433593,-1.05078 l -58.794922,0 z m 1.095703,3.0332 56.599609,0 2.123047,6.63477 -60.839844,-0.0918 2.117188,-6.54297 z m 2.8125,15.60742 a 1.5074714,1.5173931 0 0 0 -1.507813,1.51758 l 0,5.83789 a 1.5074714,1.5173931 0 0 0 1.507813,1.5176 l 10.523437,0 a 1.5074714,1.5173931 0 0 0 1.507813,-1.5176 l 0,-5.83789 a 1.5074714,1.5173931 0 0 0 -1.507813,-1.51758 l -10.523437,0 z m 1.507812,3.03517 7.509766,0 0,2.8027 -7.509766,0 0,-2.8027 z m 49.466797,2.7793 -8.501953,0.023 a 1.5076819,1.5176051 0 1 0 0.0078,3.0352 l 8.503906,-0.023 a 1.5076849,1.517608 0 1 0 -0.0098,-3.0352 z m -57.955078,4.4961 a 1.507677,1.5176 0 1 0 0,3.0352 l 64.939453,0 a 1.507677,1.5176 0 0 0 0,-3.0352 l -64.939453,0 z m 0.02539,5.0664 a 1.5074714,1.5173931 0 0 0 -1.507813,1.5176 l 0,30.5332 a 1.5074714,1.5173931 0 0 0 1.507813,1.5176 l 64.888672,0 a 1.5074714,1.5173931 0 0 0 1.50781,-1.5176 l 0,-30.5332 a 1.5074714,1.5173931 0 0 0 -1.50781,-1.5176 l -64.888672,0 z m 1.507812,3.0332 61.873047,0 0,27.5 -61.873047,0 0,-27.5 z m 35.902344,3.5488 a 1.5074714,1.5173931 0 0 0 -1.507813,1.5176 l 0,14.9453 a 1.5074714,1.5173931 0 0 0 1.507813,1.5176 l 20.646484,0 a 1.5074714,1.5173931 0 0 0 1.507813,-1.5176 l 0,-14.9453 a 1.5074714,1.5173931 0 0 0 -1.507813,-1.5176 l -20.646484,0 z m -30.576172,2.4258 a 1.5074714,1.5173931 0 0 0 -1.507812,1.5176 l 0,14.9434 a 1.5074714,1.5173931 0 0 0 1.507812,1.5175 l 20.644531,0 a 1.5074714,1.5173931 0 0 0 1.507813,-1.5175 l 0,-14.9434 a 1.5074714,1.5173931 0 0 0 -1.507813,-1.5176 l -20.644531,0 z m 32.083985,0.6094 17.630859,0 0,11.9102 -17.630859,0 0,-11.9102 z m -30.576172,2.4258 17.628906,0 0,11.9082 -17.628906,0 0,-11.9082 z"/></g><text x="0" y="115" fill="#000000" font-size="5px" font-weight="bold" font-family="'Helvetica Neue', Helvetica, Arial-Unicode, Arial, Sans-serif">Created by Cipto Nur Khoir</text><text x="0" y="120" fill="#000000" font-size="5px" font-weight="bold" font-family="'Helvetica Neue', Helvetica, Arial-Unicode, Arial, Sans-serif">from the Noun Project</text></svg>